HIERARCHY
ROOT Hips
{
  OFFSET -10.0563 7.73376 -472.55
  CHANNELS 6 Xposition Yposition Zposition Zrotation Xrotation Yrotation
  JOINT Spine
  {
    OFFSET 0 0 0
    CHANNELS 3 Zrotation Xrotation Yrotation
    JOINT Spine1
    {
      OFFSET 19 0 0
      CHANNELS 3 Zrotation Xrotation Yrotation
      JOINT Neck
      {
        OFFSET 22.5 0.6 0
        CHANNELS 3 Zrotation Xrotation Yrotation
        JOINT Head
        {
          OFFSET 14 0.0308777 0
          CHANNELS 3 Zrotation Xrotation Yrotation
          End Site
          {
            OFFSET 17 0 0
          }
        }
      }
      JOINT LeftShoulder
      {
        OFFSET 19.8 3.7 4.3
        CHANNELS 3 Zrotation Xrotation Yrotation
        JOINT LeftArm
        {
          OFFSET 8 0 0
          CHANNELS 3 Zrotation Xrotation Yrotation
          JOINT LeftForeArm
          {
            OFFSET 15.2 0 0
            CHANNELS 3 Zrotation Xrotation Yrotation
            JOINT LeftHand
            {
              OFFSET 17.8 0 0
              CHANNELS 3 Zrotation Xrotation Yrotation
              End Site
              {
                OFFSET 7.2 0 0
              }
            }
          }
        }
      }
      JOINT RightShoulder
      {
        OFFSET 19.8 3.7 -4.3
        CHANNELS 3 Zrotation Xrotation Yrotation
        JOINT RightArm
        {
          OFFSET 8 0 0.151654
          CHANNELS 3 Zrotation Xrotation Yrotation
          JOINT RightForeArm
          {
            OFFSET 15.2 0 0
            CHANNELS 3 Zrotation Xrotation Yrotation
            JOINT RightHand
            {
              OFFSET 17.8 0 0
              CHANNELS 3 Zrotation Xrotation Yrotation
              End Site
              {
                OFFSET 7.2 0 0
              }
            }
          }
        }
      }
    }
  }
  JOINT LeftUpLeg
  {
    OFFSET 5.98425 -7.666 4.78879
    CHANNELS 3 Zrotation Xrotation Yrotation
    JOINT LeftLeg
    {
      OFFSET 16 0 0
      CHANNELS 3 Zrotation Xrotation Yrotation
      JOINT LeftFoot
      {
        OFFSET 18 0 0
        CHANNELS 3 Zrotation Xrotation Yrotation
        End Site
        {
          OFFSET 0 -10.8 0
        }
      }
    }
  }
  JOINT RightUpLeg
  {
    OFFSET 5.98425 -7.66598 -4.78879
    CHANNELS 3 Zrotation Xrotation Yrotation
    JOINT RightLeg
    {
      OFFSET 16 0 0
      CHANNELS 3 Zrotation Xrotation Yrotation
      JOINT RightFoot
      {
        OFFSET 18 0 0
        CHANNELS 3 Zrotation Xrotation Yrotation
        End Site
        {
          OFFSET 0 -10.8 0
        }
      }
    }
  }
  JOINT Tail
  {
    OFFSET 6.83696 -0.722574 0
    CHANNELS 3 Zrotation Xrotation Yrotation
    JOINT Tail1
    {
      OFFSET 12 0 0
      CHANNELS 3 Zrotation Xrotation Yrotation
      End Site
      {
        OFFSET 12 0 0
      }
    }
  }
}
MOTION
Frames:	17
Frame Time:	0.0166667
-10.2346 8.0338 -472.276 125.611 -77.1069 -139.865 -138.748 3.0802 -8.34392 15.1066 6.73896 5.55483 20.7172 -4.26283 4.95001 -102.802 75.3692 118.985 -111.314 -38.8745 -136.241 88.9202 -64.3924 -152.392 -78.4349 7.45998 2.15828 5.24225 0.106719 -12.8876 76.5324 -29.7488 48.4647 109.964 -63.5549 9.24507 -86.3131 -11.7808 -5.07121 5.13778 0.0238207 -5.17705 -42.3543 84.6889 -78.2156 155.655 67.4074 5.59039 -44.7385 -4.74893 13.9807 -141.516 -26.1986 5.20998 158.753 -27.0103 -3.24 -12.3736 -7.25834 -21.9646 79.4163 16.4206 0.282979 13.6289 -21.0976 1.97072 
-10.2451 7.98016 -472.246 125.147 -76.6612 -140.507 -138.586 3.00385 -7.94293 15.2568 6.50905 5.24909 20.4794 -4.19279 4.95444 -103.096 75.1211 119.345 -111.48 -39.0726 -136.301 89.2291 -64.601 -152.111 -78.3593 7.59862 2.14431 5.08688 0.147772 -12.9511 76.4849 -29.9231 48.6922 110.306 -63.891 9.33778 -86.3143 -11.7709 -5.00051 5.09046 0.0234555 -4.95514 -47.9932 84.9193 -72.0142 156.024 67.4795 5.40315 -45.1157 -4.78194 13.9377 -140.878 -28.0083 5.80392 158.632 -28.7568 -3.48244 -13.0182 -7.29562 -22.7287 79.7242 16.7011 -0.136336 13.6212 -21.1037 1.94522 
-10.2518 7.93464 -472.239 125.117 -76.3084 -140.637 -138.247 2.92157 -7.51283 15.0643 6.26851 4.7901 20.5436 -4.13294 5.34142 -102.768 75.4469 119.1 -111.518 -39.0453 -136.443 88.7104 -64.3976 -152.642 -78.5814 6.85972 2.25567 5.73899 0.144128 -13.2819 76.5431 -29.8067 48.6384 110.629 -64.3692 10.1657 -86.2708 -11.3281 -5.14507 5.13068 -0.0195981 -4.24811 -51.5778 85.7572 -67.8118 156.606 67.5843 5.24674 -45.4517 -4.90673 14.6345 -140.236 -29.1092 6.2058 158.671 -29.7358 -3.61486 -13.2568 -7.30905 -23.1053 80.0701 16.8332 -0.519125 13.4448 -21.0512 1.7846 
-10.2292 7.95557 -472.254 126.135 -76.5738 -139.454 -138.053 3.05465 -7.53138 14.7693 6.43161 4.56782 20.5796 -4.14364 5.76202 -101.98 75.8942 118.706 -111.55 -39.046 -136.521 88.2219 -64.3575 -152.899 -78.7629 6.13089 2.2877 6.25842 0.157705 -13.9166 76.6791 -29.6184 48.7068 110.667 -64.3564 10.186 -86.1987 -11.4317 -5.14262 5.04562 -0.00440249 -4.31738 -34.3852 86.0881 -84.9211 156.189 68.8702 5.78942 -45.6057 -4.97398 15.0405 -140.399 -28.0879 5.99209 158.805 -29.0879 -3.49684 -12.9127 -7.31369 -22.8456 80.2068 16.2403 0.00362546 13.4304 -20.7961 1.83591 
-10.1926 7.98681 -472.258 126.804 -76.9651 -138.628 -138.206 3.21205 -7.70733 14.8074 6.66358 4.63267 20.4542 -4.06681 5.64623 -102.219 75.7934 119.194 -111.543 -39.0681 -136.465 88.6435 -64.4105 -152.439 -78.5101 6.12792 2.26268 6.10373 0.172438 -13.9635 76.6417 -29.6506 48.6425 110.591 -64.1714 10.1748 -86.1614 -11.3561 -5.29109 4.92196 0.00580582 -4.28575 -20.7765 85.3823 -98.6398 155.304 70.2523 6.49202 -45.7683 -4.93388 14.6315 -140.955 -27.4458 5.68263 158.875 -28.6848 -3.41149 -12.3419 -7.41184 -22.8134 79.955 15.9884 0.430647 13.3963 -20.8004 1.80285 
-10.1781 8.01554 -472.258 126.792 -77.247 -138.595 -138.519 3.23623 -7.93622 15.0425 6.76709 4.86209 20.3328 -4.04319 5.45343 -102.383 75.9178 119.255 -111.467 -39.1081 -136.205 89.2261 -64.3991 -151.896 -78.2769 5.94103 2.33812 6.07307 0.170171 -13.9164 76.4757 -29.8198 48.4206 110.335 -64.1636 9.86231 -86.0831 -11.5129 -5.20303 4.82671 -0.00859371 -4.25053 -16.3606 85.1325 -103.235 155.016 70.6188 6.72267 -45.6321 -4.90397 14.6175 -140.772 -26.3578 5.81416 158.755 -27.8454 -3.31613 -12.478 -7.26946 -22.2374 79.5747 16.0771 0.615636 13.4545 -20.9514 1.81852 
-10.1848 8.02071 -472.252 126.581 -77.2145 -138.852 -138.487 3.18805 -7.88727 14.9795 6.70418 4.70399 20.3982 -3.98612 5.5626 -102.686 75.7999 119.445 -111.543 -39.1391 -136.338 88.5357 -64.3504 -152.542 -78.5441 5.96105 2.42619 6.05411 0.153923 -13.9029 76.5826 -29.6502 48.4226 110.286 -64.1071 9.84309 -86.1481 -11.6134 -5.15922 4.8557 0.00797621 -4.41686 -20.1812 85.3466 -99.4695 155.442 69.888 6.36639 -45.4963 -4.90735 14.7528 -140.841 -26.6795 5.94201 158.747 -28.4019 -3.36931 -12.3993 -7.30827 -22.4004 79.5251 16.1909 0.582231 13.5537 -21.0025 1.85083 
-10.1859 8.03784 -472.253 126.579 -77.1891 -138.812 -138.473 3.20169 -7.75375 14.9578 6.66958 4.48825 20.4748 -3.94517 5.69272 -102.83 75.6666 119.619 -111.589 -39.1128 -136.499 88.0741 -64.2379 -153.001 -78.7236 6.02677 2.40878 6.09812 0.149114 -13.9487 76.7467 -29.4528 48.5733 109.957 -64.142 9.70113 -86.1121 -11.481 -5.25747 4.86236 0.0278413 -4.44955 -24.5671 85.3486 -95.209 155.639 69.3078 6.14839 -45.4638 -4.90452 14.659 -141.271 -27.2476 5.80472 158.867 -29.0362 -3.41163 -11.9461 -7.48062 -22.8654 79.5829 16.1012 0.585148 13.5647 -20.9637 1.86808 
-10.178 8.07395 -472.263 126.398 -77.3222 -138.923 -138.823 3.22686 -7.81124 15.3061 6.70183 4.61692 20.4193 -4.0018 5.61748 -102.585 75.8634 119.329 -111.558 -39.1215 -136.406 88.9132 -64.1701 -152.358 -78.4387 5.95121 2.35637 6.20238 0.143625 -13.8775 76.6788 -29.5447 48.5344 109.239 -64.1623 9.07443 -85.9255 -11.5609 -5.21381 4.84603 0.0347531 -4.59757 -21.1167 85.1989 -98.7693 155.247 70.0202 6.47274 -45.452 -4.88201 14.5681 -141.006 -26.2761 5.92201 158.789 -27.7937 -3.30307 -12.1977 -7.33754 -22.2695 79.4105 16.0743 0.630676 13.47 -21.0088 1.82544 
-10.2052 8.07577 -472.256 126.073 -77.3077 -139.315 -138.946 3.20662 -7.93079 15.3978 6.72006 4.78304 20.4574 -4.08372 5.62849 -102.283 76.0302 118.892 -111.615 -39.1447 -136.508 89.639 -64.2182 -151.88 -78.1814 5.65164 2.31279 6.5025 0.140604 -14.0047 76.666 -29.551 48.5012 109.135 -64.0429 8.96042 -85.8805 -11.6069 -5.14946 4.87063 0.0192814 -4.55886 -19.9297 85.1826 -99.9617 155.097 70.4036 6.59392 -45.447 -4.88223 14.663 -140.435 -26.1339 6.08031 158.601 -27.7982 -3.32021 -12.8664 -7.15831 -22.0401 79.2415 16.3447 0.528058 13.5585 -21.1661 1.88808 
-10.2449 8.05917 -472.25 125.746 -77.0159 -139.794 -138.773 3.09741 -7.93028 15.3238 6.61187 4.85593 20.5157 -4.10897 5.60616 -102.218 76.0509 118.738 -111.601 -39.1078 -136.536 89.3299 -64.3128 -152.232 -78.4309 5.77953 2.32873 6.49612 0.122472 -13.8944 76.6747 -29.5656 48.5677 109.321 -64.115 9.13412 -85.948 -11.6101 -5.12261 4.9222 0.0230084 -4.62485 -29.6204 85.6106 -90.2367 155.671 69.4602 6.10024 -45.1718 -4.8761 14.8827 -140.283 -26.7914 6.0579 158.643 -28.4234 -3.39383 -13.0278 -7.17901 -22.323 79.4465 16.5618 0.250043 13.6826 -21.1666 1.97921 
-10.2418 8.06561 -472.251 125.717 -76.9851 -139.778 -138.827 3.10476 -7.86701 15.4518 6.59153 4.85862 20.4476 -4.11366 5.52444 -102.157 76.1058 118.736 -111.511 -39.0525 -136.413 88.9695 -64.2583 -152.58 -78.6711 6.06076 2.39316 6.24974 0.113795 -13.6788 76.5735 -29.6786 48.4548 109.284 -64.0173 9.09574 -86.0287 -11.4519 -5.2542 5.00789 0.0328642 -4.73147 -32.1217 85.5504 -87.7939 155.722 69.1601 6.02441 -45.2062 -4.87477 14.7494 -140.735 -26.9 5.85359 158.802 -28.2973 -3.37969 -12.6342 -7.30244 -22.5003 79.5965 16.3733 0.213383 13.6125 -21.0284 1.96177 
-10.222 8.06185 -472.25 126.015 -77.1274 -139.374 -138.868 3.22426 -7.83811 15.4305 6.70089 4.8178 20.4127 -4.10507 5.5016 -102.166 76.0601 118.855 -111.502 -39.0169 -136.454 89.2129 -64.2659 -152.28 -78.5383 6.096 2.33076 6.16542 0.134447 -13.7664 76.613 -29.6625 48.5637 109.364 -64.1597 9.29946 -85.949 -11.3046 -5.30089 4.94042 -0.000640091 -4.35525 -23.7688 85.2681 -96.1594 155.22 69.9914 6.44109 -45.439 -4.88285 14.5873 -140.938 -26.9029 5.73997 158.814 -28.4314 -3.3751 -12.4797 -7.34356 -22.6119 79.5637 16.1893 0.318011 13.5452 -20.981 1.94991 
-10.2278 8.0303 -472.251 126.11 -77.0514 -139.359 -138.71 3.20944 -7.91646 15.2908 6.72019 4.94277 20.3626 -4.09428 5.3709 -102.313 75.938 119.033 -111.522 -39.0491 -136.447 89.581 -64.3996 -151.867 -78.3705 6.02597 2.32755 6.13377 0.141029 -13.788 76.601 -29.7431 48.7057 109.812 -64.3776 9.6364 -85.9723 -11.5039 -5.14846 4.88092 -0.0090159 -4.33509 -21.1035 85.4044 -98.6819 155.14 70.3987 6.56849 -45.4212 -4.88628 14.728 -140.614 -26.8907 5.80237 158.754 -28.3787 -3.37744 -12.7548 -7.25658 -22.4754 79.639 16.2822 0.258379 13.4947 -20.9815 1.91733 
-10.236 7.99562 -472.252 126.352 -76.9691 -139.165 -138.44 3.18676 -7.90307 14.9997 6.70273 4.88861 20.4897 -4.15049 5.53859 -102.058 76.0579 118.652 -111.576 -39.0726 -136.538 89.3012 -64.3978 -152.133 -78.3365 5.87968 2.40198 6.11608 0.167509 -14.0571 76.6462 -29.6748 48.7155 110.31 -64.2877 10.0509 -86.1095 -11.5368 -5.16195 4.92212 0.00517944 -4.47171 -21.5488 85.5606 -98.1801 155.384 69.9956 6.3944 -45.3411 -4.89854 14.8854 -140.579 -26.7754 5.75982 158.773 -28.1892 -3.36012 -12.7937 -7.23938 -22.4059 79.8317 16.2032 0.276177 13.4525 -20.8726 1.86225 
-10.2161 7.97846 -472.27 127.049 -76.9744 -138.403 -138.178 3.22385 -7.7992 14.7368 6.71493 4.6836 20.6066 -4.15206 5.73107 -101.948 76.0377 118.608 -111.603 -39.0481 -136.648 88.5939 -64.3572 -152.689 -78.494 6.01359 2.38777 6.02294 0.181977 -14.1726 76.7614 -29.5114 48.7651 110.447 -64.2311 10.2225 -86.1301 -11.452 -5.2447 4.90544 0.0101724 -4.40958 -21.0911 85.4454 -98.5684 155.393 69.8838 6.39145 -45.414 -4.90285 14.768 -140.661 -26.3748 5.86526 158.813 -27.7371 -3.31637 -12.5713 -7.25619 -22.2232 80.0678 15.8941 0.45508 13.3868 -20.6983 1.78683 
-10.2121 7.97909 -472.263 127.385 -77.0854 -137.976 -138.254 3.26151 -7.78192 14.8273 6.74658 4.6276 20.4912 -4.05734 5.63252 -102.138 75.9775 119.049 -111.584 -39.0713 -136.561 88.2176 -64.3818 -152.993 -78.6409 6.09016 2.42134 5.96138 0.165912 -13.9648 76.688 -29.5704 48.6283 110.323 -64.2 9.90787 -86.1011 -11.4663 -5.21863 4.92745 0.00943525 -4.33701 -15.331 85.1052 -104.198 154.952 70.4659 6.70163 -45.6474 -4.91239 14.6221 -141.006 -27.7902 5.32273 158.745 -29.6497 -3.45515 -12.4585 -7.43748 -23.2344 80.0302 15.7516 0.592395 13.2544 -20.6833 1.69595 
